<?xml version="1.0" encoding="UTF-8"?>
<svg xmlns="http://www.w3.org/2000/svg" xmlns:xlink="http://www.w3.org/1999/xlink" version="1.1" viewBox="0 0 504 360">
  <defs>
    <style>
      .cls-1 {
        fill: url(#linear-gradient-5);
      }

      .cls-2 {
        fill: url(#linear-gradient-6);
      }

      .cls-3 {
        fill: url(#linear-gradient-4);
      }

      .cls-4 {
        fill: url(#linear-gradient-3);
      }

      .cls-5 {
        fill: url(#linear-gradient-2);
      }

      .cls-6 {
        fill: url(#linear-gradient);
      }

      .cls-7 {
        fill: url(#Nouvelle_nuance_de_dé_-_copie_3-2);
      }

      .cls-8 {
        fill: url(#Dégradé_sans_nom_76);
      }

      .cls-9 {
        fill: url(#Dégradé_sans_nom_37);
      }

      .cls-10 {
        fill: url(#Nouvelle_nuance_de_dé_-_copie_3);
      }

      .cls-11 {
        fill: #ef7b00;
      }

      .cls-12 {
        fill: url(#Nouvelle_nuance_de_dégradé-4);
      }

      .cls-13 {
        fill: url(#Nouvelle_nuance_de_dégradé-2);
      }

      .cls-14 {
        fill: url(#Nouvelle_nuance_de_dégradé-3);
      }

      .cls-15 {
        fill: url(#Nouvelle_nuance_de_dégradé-5);
      }

      .cls-16 {
        fill: url(#Nouvelle_nuance_de_dégradé-6);
      }

      .cls-17 {
        fill: url(#Nouvelle_nuance_de_dégradé);
      }

      .cls-18 {
        fill: url(#Dégradé_sans_nom_76-2);
      }

      .cls-19 {
        fill: url(#Dégradé_sans_nom_76-4);
      }

      .cls-20 {
        fill: url(#Dégradé_sans_nom_76-3);
      }

      .cls-21 {
        fill: url(#Dégradé_sans_nom_37-3);
      }

      .cls-22 {
        fill: url(#Dégradé_sans_nom_37-2);
      }

      .cls-23 {
        fill: #f9b233;
      }
    </style>
    <linearGradient id="Dégradé_sans_nom_76" data-name="Dégradé sans nom 76" x1="12.1" y1="47.7" x2="132.3" y2="299.5" gradientUnits="userSpaceOnUse">
      <stop offset="0" stop-color="#005aa7"/>
      <stop offset=".5" stop-color="#3870b1"/>
      <stop offset="1" stop-color="#456097"/>
    </linearGradient>
    <linearGradient id="Dégradé_sans_nom_37" data-name="Dégradé sans nom 37" x1="112" y1="0" x2="232.2" y2="251.8" gradientUnits="userSpaceOnUse">
      <stop offset="0" stop-color="#1b52a1"/>
      <stop offset=".5" stop-color="#3870b1"/>
      <stop offset="1" stop-color="#4c6197"/>
    </linearGradient>
    <linearGradient id="Dégradé_sans_nom_37-2" data-name="Dégradé sans nom 37" x1="148.5" y1="-17.4" x2="268.8" y2="234.3" xlink:href="#Dégradé_sans_nom_37"/>
    <linearGradient id="Dégradé_sans_nom_76-2" data-name="Dégradé sans nom 76" x1="218.4" y1="-36.7" x2="338.7" y2="215" xlink:href="#Dégradé_sans_nom_76"/>
    <linearGradient id="Dégradé_sans_nom_76-3" data-name="Dégradé sans nom 76" x1="267" y1="-59.9" x2="387.2" y2="191.8" xlink:href="#Dégradé_sans_nom_76"/>
    <linearGradient id="Dégradé_sans_nom_76-4" data-name="Dégradé sans nom 76" x1="320.7" y1="-85.6" x2="441" y2="166.2" xlink:href="#Dégradé_sans_nom_76"/>
    <linearGradient id="linear-gradient" x1="304.9" y1="439.7" x2="477.9" y2="109.2" gradientUnits="userSpaceOnUse">
      <stop offset=".1" stop-color="#3d5fa9"/>
      <stop offset=".4" stop-color="#4c82bf"/>
      <stop offset=".7" stop-color="#6e81ad"/>
      <stop offset="1" stop-color="#fff"/>
    </linearGradient>
    <linearGradient id="linear-gradient-2" x1="308.6" y1="432.5" x2="477.1" y2="110.7" xlink:href="#linear-gradient"/>
    <linearGradient id="linear-gradient-3" x1="249.1" y1="408.9" x2="421.8" y2="79" xlink:href="#linear-gradient"/>
    <linearGradient id="linear-gradient-4" x1="252" y1="402.9" x2="420.5" y2="81.1" xlink:href="#linear-gradient"/>
    <linearGradient id="linear-gradient-5" x1="188.4" y1="375.4" x2="360.5" y2="46.8" xlink:href="#linear-gradient"/>
    <linearGradient id="linear-gradient-6" x1="190.7" y1="370.8" x2="359.2" y2="48.9" xlink:href="#linear-gradient"/>
    <linearGradient id="Nouvelle_nuance_de_dégradé" data-name="Nouvelle nuance de dégradé" x1="201.3" y1="234.5" x2="262.9" y2="80.8" gradientUnits="userSpaceOnUse">
      <stop offset=".1" stop-color="#3d5fa9"/>
      <stop offset=".4" stop-color="#4c82bf"/>
    </linearGradient>
    <linearGradient id="Nouvelle_nuance_de_dégradé-2" data-name="Nouvelle nuance de dégradé" x1="202" y1="232.5" x2="262.1" y2="82.5" xlink:href="#Nouvelle_nuance_de_dégradé"/>
    <linearGradient id="Nouvelle_nuance_de_dégradé-3" data-name="Nouvelle nuance de dégradé" x1="171.3" y1="222.5" x2="233.5" y2="67.4" xlink:href="#Nouvelle_nuance_de_dégradé"/>
    <linearGradient id="Nouvelle_nuance_de_dégradé-4" data-name="Nouvelle nuance de dégradé" x1="172" y1="220.5" x2="232.2" y2="70.5" xlink:href="#Nouvelle_nuance_de_dégradé"/>
    <linearGradient id="Nouvelle_nuance_de_dégradé-5" data-name="Nouvelle nuance de dégradé" x1="59.8" y1="176.5" x2="121.6" y2="22.4" xlink:href="#Nouvelle_nuance_de_dégradé"/>
    <linearGradient id="Nouvelle_nuance_de_dégradé-6" data-name="Nouvelle nuance de dégradé" x1="60.2" y1="175.7" x2="120.3" y2="25.7" xlink:href="#Nouvelle_nuance_de_dégradé"/>
    <linearGradient id="Dégradé_sans_nom_37-3" data-name="Dégradé sans nom 37" x1="-14.9" y1="-268.5" x2="340.7" y2="475.9" xlink:href="#Dégradé_sans_nom_37"/>
    <linearGradient id="Nouvelle_nuance_de_dé_-_copie_3" data-name="Nouvelle nuance de dé - copie 3" x1="128.4" y1="204.6" x2="190.6" y2="49.6" gradientUnits="userSpaceOnUse">
      <stop offset=".1" stop-color="#3d5fa9"/>
      <stop offset=".4" stop-color="#4c82bf"/>
    </linearGradient>
    <linearGradient id="Nouvelle_nuance_de_dé_-_copie_3-2" data-name="Nouvelle nuance de dé - copie 3" x1="128.9" y1="203.2" x2="189" y2="53.2" xlink:href="#Nouvelle_nuance_de_dé_-_copie_3"/>
  </defs>
  <!-- Generator: Adobe Illustrator 28.7.1, SVG Export Plug-In . SVG Version: 1.2.0 Build 142)  -->
  <g>
    <g id="Layer_1">
      <path class="cls-8" d="M79.1,177.6h-21.2v29.9h-17.2v-75c0-4.8,3.8-9,8.6-9h28.5c17.8,0,27.1,9.5,27.1,27.1s-9,27.1-25.8,27.1ZM74.8,162.4c8.6.1,13-4,13-12.1s-4.1-12.2-12.1-12.2h-17.5v24.3h16.7Z"/>
      <path class="cls-9" d="M177.5,173.8c.5-21.1,11.7-31.6,33.6-31.6h2.3v17.1h-5.6c-9.1,0-13.7,4.8-13.7,14.3v34h-16.7v-33.7Z"/>
      <path class="cls-22" d="M241.2,158.4h-2.2v49.2h-16.4v-67.1c-.6-12.5,6.7-17.4,18.9-17.4s5.4.1,7.9.5v13.6h-4.3c-3.8,0-5.9,1.6-6.3,4.8v4.3h10.6v3.8c0,4.4-3.7,8.3-8.2,8.3Z"/>
      <path class="cls-18" d="M301.6,192.1h43.9v15.4h-60.8v-75c0-5.8,2.8-8.9,8.6-9h52.1v14.6h-43.9v54Z"/>
      <path class="cls-20" d="M379.6,209c-19.8,0-29.9-11.4-30.4-33.9,0-22.4,10-33.6,30.1-34,15.8,0,25.2,7,28,21.3h-17.9c-2-4.4-5.4-6.8-10.6-6.8-8.6,0-13,6.5-13,19.5s4.6,19.5,13.7,19.4c3.8,0,7.2-1.6,9.9-4.7,1.6-1.6,3.5-2.3,5.6-2.3h12.4c-3,13.3-12.6,21.9-27.8,21.5Z"/>
      <path class="cls-19" d="M475,175.2c0,22.5-10,33.9-29.8,33.9s-29.7-11.4-29.7-33.9,9.9-34,29.7-34,29.8,11.2,29.8,34ZM432.2,175.2c.1,12.7,4.4,19.2,12.8,19.2s12.6-6.7,12.7-19.6c0-12.7-4.2-19-12.6-19s-13,6.5-13,19.5Z"/>
      <g>
        <path class="cls-6" d="M417.3,186.9c-.7-3.5-1.1-7.5-1.1-11.7,0-11.2,2.4-19.6,7.3-25.1,2.4-2.8,5.4-4.8,9-6.2,3.6-1.4,7.9-2.1,12.7-2.1s9.1.7,12.8,2.1c5.5,2.1,9.5,5.6,12.2,10.8,2.7,5.2,4.1,12.1,4.1,20.4,0,1.8,0,3.6-.3,5.7v.5s-.6,0-.6,0c-4.9.7-10,1.4-15.1,2h-.9c0,.1.2-.8.2-.8.5-2.3.7-5,.7-8,0-6.5-1.1-11.3-3.3-14.6-1.1-1.7-2.5-2.9-4.2-3.8-1.7-.8-3.6-1.3-5.8-1.3s-4.3.4-6,1.3c-2.6,1.3-4.5,3.6-5.8,6.8-1.3,3.2-1.9,7.1-1.9,12.1,0,4.1.5,7.4,1.4,10.2l.2.8h-.8c-4.7.5-9.5.9-14.4,1.2h-.6s-.1-.5-.1-.5Z"/>
        <path class="cls-5" d="M432.3,185.6c-.9-2.9-1.3-6.4-1.4-10.4h0c0-5,.6-9.1,1.9-12.4,1.3-3.3,3.3-5.7,6.1-7.1,1.8-.9,3.9-1.4,6.3-1.4,2.3,0,4.3.4,6.1,1.3,1.8.9,3.3,2.3,4.4,4,2.3,3.5,3.4,8.5,3.4,15h0s0,0,0,0c0,3-.3,5.7-.8,8.1,5-.6,10.1-1.3,15.1-2,.2-1.8.3-3.7.3-5.6,0-8.4-1.4-15.1-4.1-20.1-2.7-5-6.6-8.5-11.9-10.5-3.5-1.3-7.7-2-12.5-2-4.8,0-9,.7-12.5,2-3.5,1.3-6.4,3.3-8.8,6-4.7,5.3-7.1,13.5-7.1,24.7,0,4.3.4,8.2,1.1,11.6,4.8-.3,9.6-.7,14.4-1.2Z"/>
        <path class="cls-4" d="M351.9,189.4c-1.3-4.1-1.9-8.9-2.1-14.3,0-11,2.5-19.3,7.4-24.8,2.5-2.8,5.5-4.8,9.2-6.2,3.7-1.4,8-2.2,13-2.3,7.8,0,14,1.7,18.5,5.2,4.2,3.2,7,7.8,8.5,14l.2.8h-16.7l-.2-.4c-1-2-2.4-3.6-4-4.6-1.9-1.2-4.2-1.8-6.8-1.8s-4.3.4-6,1.3c-2.6,1.3-4.5,3.6-5.8,6.8-1.3,3.2-1.9,7.1-1.9,12.1,0,5.8.9,10.3,2.7,13.6l.5.9h-1.1c-5,.1-9.9.2-14.8.2h-.5s-.1-.5-.1-.5Z"/>
        <path class="cls-3" d="M367.3,189c-1.9-3.5-2.8-8.1-2.8-13.9,0-5,.6-9.1,1.9-12.4,1.3-3.3,3.3-5.7,6.1-7.1,1.8-.9,3.9-1.4,6.3-1.4,2.8,0,5.2.6,7.2,1.9,1.8,1.2,3.2,2.8,4.2,4.9h15.5c-1.5-6.1-4.3-10.6-8.3-13.6-4.4-3.3-10.4-5-18.1-5-4.9,0-9.2.8-12.8,2.2-3.6,1.4-6.5,3.4-8.9,6.1-4.7,5.3-7.2,13.4-7.2,24.4.1,5.4.8,10.1,2,14.1,4.9,0,9.9,0,14.8-.2Z"/>
        <path class="cls-1" d="M300.3,189c-4.9-.2-9.7-.4-14.3-.6h-.6v-55.9c0-1.4.2-2.6.5-3.6.5-1.6,1.3-2.7,2.6-3.5,1.2-.8,2.9-1.2,5-1.3h51.5v13.3h-43.9v51.6h-.7Z"/>
        <path class="cls-2" d="M300.3,188.4v-51.6h43.9v-12h-50.8c-2,0-3.5.5-4.6,1.2-1.1.7-1.8,1.7-2.3,3.1-.3.9-.5,2.1-.5,3.4v55.2c4.8.2,9.5.4,14.3.6Z"/>
      </g>
      <g>
        <path class="cls-17" d="M237.6,187.4c-4.6-.3-9.3-.6-13.8-.9h-.6v-46.1c0-.5,0-1,0-1.4,0-2.7.4-5.1,1.3-7.1,1.2-2.8,3.2-4.9,6.2-6.3,2.8-1.3,6.5-2,10.9-2s4.7.1,6.7.3h.6v12.5h-3.7c-2.1,0-3.7.4-4.8,1.3-.6.5-1.1,1-1.4,1.7-.3.7-.6,1.5-.7,2.3v5s10.6,0,10.6,0v3.2c0,2-.8,3.9-2.2,5.4-1.4,1.5-3.3,2.3-5.3,2.3h-2.9v29.7h-.7Z"/>
        <path class="cls-13" d="M223.8,140.4v45.4c4.6.3,9.2.6,13.8.9v-29.7h3.5c1.8,0,3.6-.8,4.8-2.1,1.3-1.3,2-3,2-4.9v-2.5h-10.6v-5.7h0c.1-1,.3-1.9.7-2.6.4-.8.9-1.4,1.6-1.9,1.4-1,3.1-1.5,5.2-1.5h3v-11.2c-2.1-.2-4.2-.3-6.6-.3-4.3,0-7.9.6-10.6,1.9-2.7,1.3-4.7,3.2-5.8,6-.8,1.8-1.2,4.1-1.2,6.8s0,.9,0,1.4h0Z"/>
        <path class="cls-14" d="M192.8,183.9c-4.7-.4-9.4-.9-14.1-1.4h-.6v-8.8c.1-5.2.9-9.8,2.3-13.7,2.2-5.8,5.7-10.1,10.8-13,5.1-2.9,11.7-4.4,19.8-4.4h1.7v15.8h-4.9c-2.3,0-4.4.3-6.2.9-2.7.9-4.8,2.7-6.1,5-1.3,2.3-2,5.4-2,9v10.5h-.7Z"/>
        <path class="cls-12" d="M192.9,183.3v-9.7c0-3.7.7-6.9,2.1-9.4,1.4-2.5,3.7-4.3,6.5-5.3,1.9-.7,4-1,6.4-1h4.3v-14.5h-1.1c-8,0-14.5,1.5-19.5,4.3-4.9,2.8-8.4,7-10.5,12.7-1.4,3.8-2.2,8.3-2.3,13.4v8.1c4.6.5,9.3.9,14.1,1.4Z"/>
        <path class="cls-15" d="M95.1,172c-18.1-2.7-36-5.7-53.3-8.9h-.5v-30.5c0-2.2.9-4.3,2.3-5.9,1.5-1.6,3.5-2.5,5.7-2.5h28.5c4.3,0,8.2.6,11.5,1.7,4.9,1.7,8.6,4.6,11.1,8.8,2.5,4.1,3.8,9.5,3.8,15.9,0,8.1-2.2,14.8-6.4,19.3-.6.7-1.3,1.3-2.2,2l-.2.2h-.3ZM75.1,163.1c2.2,0,4.1-.3,5.7-.8,2.5-.8,4.4-2.3,5.7-4.3,1.2-2,1.9-4.6,1.9-7.7s-.3-4-.8-5.6c-.8-2.4-2.3-4.3-4.3-5.5-2-1.2-4.6-1.8-7.7-1.8h-18.2v25.6h17.7Z"/>
        <path class="cls-16" d="M95.2,171.4c.8-.6,1.5-1.2,2.1-1.9,4.1-4.4,6.3-10.8,6.3-18.9,0-6.4-1.3-11.6-3.7-15.6-2.4-4-6-6.8-10.8-8.5-3.2-1.1-7-1.7-11.3-1.7h-28.5c-2,0-3.8.9-5.2,2.3-1.3,1.4-2.2,3.4-2.2,5.4v29.9c14.8,2.7,32.8,5.8,53.3,8.9ZM56.8,136.8h18.8c3.2,0,5.9.6,8,1.9,2.2,1.3,3.7,3.3,4.5,5.9.6,1.7.8,3.6.8,5.8,0,3.2-.6,5.9-2,8-1.3,2.2-3.4,3.7-6,4.5-1.7.6-3.7.8-5.9.8-.1,0-.2,0-.4,0h-18v-26.9Z"/>
      </g>
      <path class="cls-21" d="M194.9,87.5c-35.7,0-66.1,22.9-77.3,54.8,2.6-2.2,5.6-3.9,8.9-5.2,1.1-.4,2.2-.7,3.3-1,3.5-6.8,8-13,13.4-18.3,13.2-13.2,31.5-21.4,51.7-21.4,20.2,0,38.5,8.2,51.7,21.4,13.2,13.2,21.4,31.5,21.4,51.7,0,20.2-8.2,38.5-21.4,51.7-13.2,13.2-31.5,21.4-51.7,21.4-10,0-19.4-2-28.1-5.6-10.7-5.4-42.6-24.2-37.8-57.4h42.3c1.2-25.6-8.5-38.3-29.3-38.3-19.9.1-29.9,11.2-29.9,33.5,0,0-.2,38.8,37,62.6,13.1,8.9,28.9,14.1,45.9,14.1,45.2,0,81.9-36.7,81.9-81.9,0-45.2-36.7-81.9-81.9-81.9ZM141.7,154.6c7,0,11.1,4.4,12.1,13.1h-24.6c1.2-8.7,5.4-13.1,12.5-13.1Z"/>
      <path class="cls-10" d="M145.2,178.8c-10.7-1.3-21.4-2.7-31.9-4.2h-.6c0,0,0-.7,0-.7,0-10.6,2.6-18.7,7.3-24,2.4-2.7,5.4-4.7,9.1-6.1,3.6-1.4,8-2.1,12.8-2.1,4.8,0,9,.7,12.6,2.1,5.4,2.1,9.3,5.7,12.1,10.9,2.7,5.2,4.1,12.1,4.1,20.5,0,.9,0,1.7,0,2.6v.9h-25.5ZM154.5,168.4v-.7c-.6-4.4-1.9-7.9-4-10.2-1.1-1.2-2.4-2.1-3.8-2.6-1.5-.6-3.1-.9-5-.9h0c-3.6,0-6.7,1.2-8.8,3.5-2.2,2.3-3.6,5.7-4.2,10.1v.7c-.1,0,25.9,0,25.9,0Z"/>
      <path class="cls-7" d="M145.2,178.2h24.8c0-1,0-2,0-2.9,0-8.4-1.4-15.1-4-20.2-2.6-5.1-6.5-8.5-11.7-10.6-3.5-1.3-7.6-2-12.4-2-4.9,0-9.1.7-12.6,2.1-3.6,1.3-6.5,3.3-8.8,5.9-4.6,5.1-7,12.9-7.1,23.5,10.1,1.4,20.8,2.8,31.8,4.2ZM127.9,167.6c.6-4.5,2.1-8,4.4-10.5,2.3-2.5,5.6-3.7,9.4-3.7,1.9,0,3.6.3,5.2.9,1.6.6,2.9,1.6,4.1,2.8,2.3,2.5,3.6,6,4.1,10.5l.2,1.4h-27.5l.2-1.5Z"/>
      <polygon class="cls-11" points="312.8 144.2 312.8 156.9 323 165 312.8 173.1 312.8 185.8 339.1 165 312.8 144.2"/>
      <polygon class="cls-23" points="339.1 165 312.9 144.2 312.9 156.9 323 165 339.1 165"/>
    </g>
  </g>
</svg>